<?xml version="1.0" encoding="utf-8"?>
<!-- Generator: Adobe Illustrator 25.2.3, SVG Export Plug-In . SVG Version: 6.00 Build 0)  -->
<svg version="1.1" id="Capa_1" xmlns="http://www.w3.org/2000/svg" xmlns:xlink="http://www.w3.org/1999/xlink" x="0px" y="0px"
	 viewBox="0 0 1000 1000" style="enable-background:new 0 0 1000 1000;" xml:space="preserve">
<style type="text/css">
	.st0{fill:#FFFFFF;}
	.st1{fill:#2B2F77;}
	.st2{fill:#CE1327;}
</style>
<g>
	<g>
		<g>
			<path class="st1" d="M136.86,412.59c0-10.87,1.38-21.31,4.16-31.32c2.77-10,6.72-19.39,11.86-28.16
				c5.13-8.77,11.27-16.75,18.4-23.93c7.13-7.18,15.06-13.31,23.79-18.39s18.09-9.03,28.11-11.85c10.01-2.82,20.46-4.23,31.34-4.23
				c10.78,0,21.2,1.41,31.26,4.23c10.06,2.82,19.46,6.77,28.18,11.85s16.68,11.21,23.87,18.39c7.19,7.18,13.32,15.16,18.4,23.93
				c5.08,8.77,9.03,18.16,11.86,28.16c2.82,10,4.24,20.44,4.24,31.32c0,10.88-1.41,21.31-4.24,31.32
				c-2.82,10-6.78,19.34-11.86,28.01c-5.08,8.67-11.22,16.57-18.4,23.7c-7.19,7.13-15.14,13.26-23.87,18.39
				c-8.73,5.13-18.12,9.08-28.18,11.85c-10.06,2.77-20.48,4.16-31.26,4.16c-10.88,0-21.33-1.38-31.34-4.16
				c-10.01-2.77-19.38-6.72-28.11-11.85c-8.73-5.13-16.66-11.26-23.79-18.39c-7.14-7.13-13.27-15.03-18.4-23.7
				c-5.13-8.67-9.09-18.01-11.86-28.01C138.24,433.91,136.86,423.47,136.86,412.59z M196.41,412.44c0,8.52,1.43,16.47,4.3,23.85
				c2.87,7.39,6.89,13.83,12.07,19.31c5.17,5.49,11.3,9.8,18.37,12.93c7.07,3.13,14.86,4.69,23.36,4.69c8.5,0,16.32-1.56,23.44-4.69
				c7.12-3.13,13.27-7.44,18.44-12.93c5.18-5.49,9.2-11.93,12.06-19.31c2.87-7.39,4.3-15.34,4.3-23.85c0-8.41-1.44-16.34-4.3-23.78
				c-2.87-7.44-6.89-13.93-12.06-19.47c-5.17-5.54-11.32-9.9-18.44-13.08c-7.12-3.18-14.93-4.77-23.44-4.77
				c-8.5,0-16.29,1.59-23.36,4.77c-7.07,3.18-13.19,7.54-18.37,13.08c-5.17,5.54-9.2,12.03-12.07,19.47
				C197.85,396.1,196.41,404.03,196.41,412.44z"/>
			<path class="st1" d="M608.38,305.17c0-2.15,0.59-3.87,1.76-5.16c1.18-1.28,2.84-1.92,4.99-1.92h152.68c2.26,0,4,0.67,5.23,2
				c1.23,1.33,1.85,3.12,1.85,5.37v38.06c0,1.74-0.62,3.4-1.85,4.99c-1.23,1.59-3.03,2.38-5.39,2.38h-99.72v38.17h76.95
				c1.95,0,3.56,0.46,4.85,1.38c1.28,0.92,1.92,2.46,1.92,4.62v33.24c0,1.44-0.57,2.82-1.69,4.16c-1.13,1.33-2.77,2-4.93,2h-77.1
				v39.4h103.42c4.62,0,6.93,2.35,6.93,7.06v38.67c0,1.02-0.41,1.94-1.23,2.76c-0.41,2.87-2.51,4.3-6.31,4.3h-155.6
				c-2.05,0-3.69-0.54-4.91-1.62c-1.23-1.08-1.84-2.74-1.84-5V305.17z"/>
		</g>
		<g>
			<g>
				<polygon class="st2" points="434.04,396.43 434.04,526.63 548.35,526.63 548.35,525.8 				"/>
			</g>
			<g>
				<path class="st2" d="M434.04,305.47l114.31,129.36V185.08h-79.69c-5.79,34.73-65.14,63.68-116.19,64.21v55.26h81.57V305.47z"/>
			</g>
		</g>
	</g>
	<g>
		<g>
			<path class="st1" d="M138.55,592.31c0-2.04,0.69-3.68,2.08-4.91c1.39-1.23,3.1-1.84,5.16-1.84h165.59c1.85,0,3.49,0.56,4.93,1.69
				c1.44,1.12,2.26,2.81,2.46,5.06v38.21c0,1.84-0.64,3.61-1.92,5.3c-1.28,1.69-3.1,2.53-5.46,2.53h-53.09v168.51
				c0,1.85-0.67,3.52-2,5.01c-1.33,1.49-3.07,2.23-5.22,2.23h-45.13c-1.74,0-3.38-0.69-4.91-2.08c-1.53-1.39-2.3-3.11-2.3-5.16
				V638.34h-52.94c-2.05,0-3.77-0.66-5.16-1.99c-1.39-1.33-2.08-3.27-2.08-5.83V592.31z"/>
			<path class="st1" d="M359.07,592.64c0-2.15,0.59-3.87,1.76-5.16c1.18-1.28,2.84-1.92,4.99-1.92h152.68c2.26,0,4,0.67,5.23,2
				c1.23,1.33,1.85,3.12,1.85,5.37v38.06c0,1.74-0.62,3.4-1.85,4.99c-1.23,1.59-3.03,2.38-5.39,2.38h-99.72v38.17h76.95
				c1.95,0,3.56,0.46,4.85,1.38c1.28,0.92,1.92,2.46,1.92,4.62v33.24c0,1.44-0.57,2.82-1.69,4.16c-1.13,1.33-2.77,2-4.93,2h-77.1
				v39.4h103.42c4.62,0,6.93,2.35,6.93,7.06v38.67c0,1.02-0.41,1.94-1.23,2.76c-0.41,2.87-2.51,4.3-6.31,4.3h-155.6
				c-2.05,0-3.69-0.54-4.91-1.62c-1.23-1.08-1.84-2.74-1.84-5V592.64z"/>
			<path class="st1" d="M569.6,592.33c0-1.85,0.59-3.44,1.76-4.77c1.18-1.33,2.84-2,4.99-2h45.43c1.53,0,3.15,0.62,4.83,1.85
				s2.53,2.87,2.53,4.92v83.87c11.18-14.36,22.16-28.52,32.93-42.47c10.77-13.95,21.7-28.11,32.78-42.47
				c1.13-1.74,2.59-3.16,4.39-4.23c1.79-1.08,3.56-1.62,5.31-1.62h58.48c2.46,0,3.69,0.77,3.69,2.31c0,1.03-0.57,2.26-1.69,3.69
				l-72.48,95.57l80.18,120.65c1.13,1.75,1.69,3.13,1.69,4.16c0,1.54-1.13,2.31-3.39,2.31h-58.17c-1.74,0-3.46-0.51-5.16-1.54
				c-1.69-1.02-3.1-2.41-4.23-4.16c-5.44-7.39-10.39-14.47-14.85-21.24c-4.46-6.77-8.8-13.52-13-20.24
				c-4.21-6.72-8.46-13.52-12.77-20.39c-4.31-6.87-9.03-14.11-14.16-21.7l-19.54,22.47v60.02c0,4.52-2.46,6.77-7.37,6.77H576.5
				c-4.61,0-6.91-2.26-6.91-6.77V592.33z"/>
		</g>
	</g>
	<g>
		<path class="st1" d="M804.61,811.76c-4.08-2.11-7.22-5.06-9.44-8.87c-2.21-3.8-3.32-8.19-3.32-13.17v-23.95
			c0-4.98,1.1-9.37,3.32-13.17c2.21-3.8,5.36-6.74,9.44-8.81c4.08-2.07,8.81-3.11,14.21-3.11c5.32,0,10.01,0.98,14.05,2.95
			c4.04,1.97,7.19,4.77,9.44,8.4c2.25,3.63,3.37,7.83,3.37,12.6c0,0.62-0.41,1-1.24,1.14l-12.13,0.73h-0.21
			c-0.69,0-1.04-0.38-1.04-1.14c0-3.66-1.12-6.6-3.37-8.81c-2.25-2.21-5.2-3.32-8.87-3.32c-3.73,0-6.72,1.11-8.97,3.32
			c-2.25,2.21-3.37,5.15-3.37,8.81v24.99c0,3.6,1.12,6.5,3.37,8.71c2.25,2.21,5.24,3.32,8.97,3.32c3.66,0,6.62-1.1,8.87-3.32
			c2.25-2.21,3.37-5.11,3.37-8.71c0-0.76,0.42-1.14,1.24-1.14l12.13,0.52c0.34,0,0.64,0.1,0.88,0.31c0.24,0.21,0.36,0.45,0.36,0.73
			c0,4.77-1.12,8.99-3.37,12.65c-2.25,3.67-5.39,6.5-9.44,8.5c-4.04,2.01-8.73,3.01-14.05,3.01
			C813.43,814.92,808.69,813.87,804.61,811.76z"/>
		<path class="st1" d="M894.72,813.16l-12.96-28.72c-0.14-0.27-0.35-0.41-0.62-0.41h-9.64c-0.35,0-0.52,0.17-0.52,0.52v28.31
			c0,0.35-0.12,0.64-0.36,0.88c-0.24,0.24-0.54,0.36-0.88,0.36H857.6c-0.35,0-0.64-0.12-0.88-0.36c-0.24-0.24-0.36-0.54-0.36-0.88
			v-70.1c0-0.34,0.12-0.64,0.36-0.88c0.24-0.24,0.54-0.36,0.88-0.36h29.66c4.42,0,8.31,0.9,11.67,2.7c3.35,1.8,5.94,4.36,7.78,7.67
			c1.83,3.32,2.75,7.16,2.75,11.51c0,4.7-1.18,8.73-3.53,12.08c-2.35,3.35-5.64,5.72-9.85,7.1c-0.35,0.14-0.45,0.38-0.31,0.73
			l14.1,29.34c0.14,0.28,0.21,0.49,0.21,0.62c0,0.55-0.38,0.83-1.14,0.83h-12.75C895.48,814.09,895,813.78,894.72,813.16z
			 M870.97,754.57v17.73c0,0.35,0.17,0.52,0.52,0.52h13.58c2.9,0,5.27-0.86,7.1-2.59c1.83-1.73,2.75-3.97,2.75-6.74
			c0-2.76-0.92-5.03-2.75-6.79c-1.83-1.76-4.2-2.65-7.1-2.65h-13.58C871.15,754.05,870.97,754.23,870.97,754.57z"/>
	</g>
</g>
</svg>
